<svg xmlns="http://www.w3.org/2000/svg" width="920" height="744" viewBox="0 0 920 744" font-family="'Segoe UI', Tahoma, sans-serif" font-size="13">
<rect x="0" y="0" width="920" height="744" fill="#F0F0F0"/>
<rect x="0" y="0" width="920" height="30" fill="#323232"/>
<text x="12" y="20" font-size="13" fill="#FFFFFF">Modbus 扫描工具  v1.0</text>
<text x="848" y="20" font-size="13" fill="#CCCCCC">—  ▢  ✕</text>
<rect x="10" y="40" width="900" height="54" fill="#ECECEC" stroke="#B6B6B6" stroke-width="1" rx="3"/><rect x="20" y="31" width="64" height="18" fill="#F0F0F0"/><text x="28" y="44" font-size="12" fill="#333">协议模式</text><circle cx="87" cy="40" r="9" fill="#0078D7"/><text x="87" y="44" text-anchor="middle" font-size="11" fill="#FFFFFF">1</text>
<circle cx="40" cy="72" r="7" fill="#FFFFFF" stroke="#7F9DB9"/><circle cx="40" cy="72" r="3.5" fill="#0078D7"/><text x="54" y="77" font-size="12" fill="#222">Modbus TCP</text>
<circle cx="220" cy="72" r="7" fill="#FFFFFF" stroke="#7F9DB9"/><text x="234" y="77" font-size="12" fill="#222">Modbus RTU (串口)</text>
<rect x="10" y="104" width="900" height="64" fill="#ECECEC" stroke="#B6B6B6" stroke-width="1" rx="3"/><rect x="20" y="95" width="64" height="18" fill="#F0F0F0"/><text x="28" y="108" font-size="12" fill="#333">连接参数</text><circle cx="87" cy="104" r="9" fill="#0078D7"/><text x="87" y="108" text-anchor="middle" font-size="11" fill="#FFFFFF">2</text>
<text x="30" y="153" font-size="12" fill="#222">IP 地址:</text>
<rect x="95" y="138" width="150" height="22" fill="#FFFFFF" stroke="#7F9DB9" stroke-width="1"/><text x="101" y="153" font-size="12" fill="#222">127.0.0.1</text>
<text x="270" y="153" font-size="12" fill="#222">端口:</text>
<rect x="315" y="138" width="70" height="22" fill="#FFFFFF" stroke="#7F9DB9" stroke-width="1"/><text x="321" y="153" font-size="12" fill="#222">502</text>
<rect x="10" y="176" width="900" height="128" fill="#ECECEC" stroke="#B6B6B6" stroke-width="1" rx="3"/><rect x="20" y="167" width="64" height="18" fill="#F0F0F0"/><text x="28" y="180" font-size="12" fill="#333">扫描参数</text><circle cx="87" cy="176" r="9" fill="#0078D7"/><text x="87" y="180" text-anchor="middle" font-size="11" fill="#FFFFFF">3</text>
<text x="30" y="215" font-size="12" fill="#222">功能码:</text>
<rect x="90" y="200" width="250" height="22" fill="#FFFFFF" stroke="#7F9DB9" stroke-width="1"/><text x="96" y="215" font-size="12" fill="#222">0x03 保持寄存器 (4x)</text><rect x="322" y="200" width="18" height="22" fill="#E1E1E1" stroke="#7F9DB9"/><text x="331" y="215" text-anchor="middle" font-size="11" fill="#555">▾</text>
<text x="360" y="215" font-size="12" fill="#222">起始地址(0基):</text>
<rect x="475" y="200" width="70" height="22" fill="#FFFFFF" stroke="#7F9DB9" stroke-width="1"/><text x="481" y="215" font-size="12" fill="#222">0</text>
<text x="560" y="215" font-size="12" fill="#222">数量:</text>
<rect x="605" y="200" width="60" height="22" fill="#FFFFFF" stroke="#7F9DB9" stroke-width="1"/><text x="611" y="215" font-size="12" fill="#222">1</text>
<text x="30" y="255" font-size="12" fill="#222">从站起:</text>
<rect x="85" y="240" width="60" height="22" fill="#FFFFFF" stroke="#7F9DB9" stroke-width="1"/><text x="91" y="255" font-size="12" fill="#222">1</text>
<text x="160" y="255" font-size="12" fill="#222">从站止:</text>
<rect x="215" y="240" width="60" height="22" fill="#FFFFFF" stroke="#7F9DB9" stroke-width="1"/><text x="221" y="255" font-size="12" fill="#222">247</text>
<text x="300" y="255" font-size="12" fill="#222">超时(ms):</text>
<rect x="365" y="240" width="60" height="22" fill="#FFFFFF" stroke="#7F9DB9" stroke-width="1"/><text x="371" y="255" font-size="12" fill="#222">300</text>
<text x="30" y="295" font-size="12" fill="#222">间隔(ms):</text>
<rect x="95" y="280" width="60" height="22" fill="#FFFFFF" stroke="#7F9DB9" stroke-width="1"/><text x="101" y="295" font-size="12" fill="#222">100</text>
<text x="200" y="295" font-size="12" fill="#222">提示: 40001→地址0, 40002→地址1</text>
<circle cx="14" cy="329" r="9" fill="#0078D7"/><text x="14" y="333" text-anchor="middle" font-size="11" fill="#FFFFFF">4</text>
<rect x="30" y="316" width="100" height="26" fill="#0078D7" stroke="#9C9C9C" rx="2"/><text x="80.0" y="333" text-anchor="middle" font-size="12" fill="#FFFFFF">开始扫描</text>
<rect x="140" y="316" width="80" height="26" fill="#E1E1E1" stroke="#9C9C9C" rx="2"/><text x="180.0" y="333" text-anchor="middle" font-size="12" fill="#222">停止</text>
<rect x="230" y="316" width="90" height="26" fill="#E1E1E1" stroke="#9C9C9C" rx="2"/><text x="275.0" y="333" text-anchor="middle" font-size="12" fill="#222">导出CSV</text>
<rect x="330" y="316" width="70" height="26" fill="#E1E1E1" stroke="#9C9C9C" rx="2"/><text x="365.0" y="333" text-anchor="middle" font-size="12" fill="#222">清空</text>
<rect x="10" y="356" width="900" height="210" fill="#ECECEC" stroke="#B6B6B6" stroke-width="1" rx="3"/><rect x="20" y="347" width="64" height="18" fill="#F0F0F0"/><text x="28" y="360" font-size="12" fill="#333">扫描结果</text><circle cx="87" cy="356" r="9" fill="#0078D7"/><text x="87" y="360" text-anchor="middle" font-size="11" fill="#FFFFFF">5</text>
<rect x="20" y="378" width="880" height="170" fill="#FFFFFF" stroke="#B6B6B6"/><rect x="20" y="378" width="880" height="22" fill="#ECECEC" stroke="#B6B6B6"/><text x="28" y="393" font-size="12" fill="#333">从站地址</text><text x="118" y="393" font-size="12" fill="#333">状态</text><text x="228" y="393" font-size="12" fill="#333">数值</text><text x="448" y="393" font-size="12" fill="#333">备注</text><text x="28" y="415" font-size="12" fill="#222">1</text><text x="118" y="415" font-size="12" fill="#222">在线</text><text x="228" y="415" font-size="12" fill="#222">12345</text><text x="448" y="415" font-size="12" fill="#222">HEX: 0x3039</text><line x1="20" y1="422" x2="900" y2="422" stroke="#EEEEEE"/><text x="28" y="437" font-size="12" fill="#222">2</text><text x="118" y="437" font-size="12" fill="#222">异常</text><text x="228" y="437" font-size="12" fill="#222">异常 0x02</text><text x="448" y="437" font-size="12" fill="#222">从站存在但功能/地址不支持</text><line x1="20" y1="444" x2="900" y2="444" stroke="#EEEEEE"/><text x="28" y="459" font-size="12" fill="#222">10</text><text x="118" y="459" font-size="12" fill="#222">在线</text><text x="228" y="459" font-size="12" fill="#222">1, 0</text><text x="448" y="459" font-size="12" fill="#222">HEX: 0x0001, 0x0000</text><line x1="20" y1="466" x2="900" y2="466" stroke="#EEEEEE"/>
<rect x="10" y="574" width="900" height="130" fill="#ECECEC" stroke="#B6B6B6" stroke-width="1" rx="3"/><rect x="20" y="565" width="40" height="18" fill="#F0F0F0"/><text x="28" y="578" font-size="12" fill="#333">日志</text><circle cx="63" cy="574" r="9" fill="#0078D7"/><text x="63" y="578" text-anchor="middle" font-size="11" fill="#FFFFFF">6</text>
<rect x="20" y="596" width="880" height="92" fill="#FFFFFF" stroke="#7F9DB9"/><text x="26" y="612" font-size="11.5" fill="#333" font-family="Consolas, monospace">已连接 (TCP)，扫描 1–247 …</text><text x="26" y="628" font-size="11.5" fill="#333" font-family="Consolas, monospace">Slave 1: register 40001 = 12345</text><text x="26" y="644" font-size="11.5" fill="#333" font-family="Consolas, monospace">Slave 2: 异常 0x02 (从站存在但功能/地址不支持)</text><text x="26" y="660" font-size="11.5" fill="#333" font-family="Consolas, monospace">扫描结束，命中（在线+异常）从站：2</text>
<rect x="0" y="712" width="920" height="32" fill="#ECECEC" stroke="#B6B6B6"/>
<text x="12" y="732" font-size="12" fill="#333">状态：完成</text>
</svg>